name ./resultDataOpenSim/trcMotMarkerGrf/sub06/grf-01-04.mot
datacolumns 19
datarows 22
range 1.54400000 1.62800000
endheader

                time	     ground_force_vx	     ground_force_vy	     ground_force_vz	     ground_force_px	     ground_force_py	     ground_force_pz	   l_ground_force_vx	   l_ground_force_vy	   l_ground_force_vz	   l_ground_force_px	   l_ground_force_py	   l_ground_force_pz	     ground_torque_x	     ground_torque_y	     ground_torque_z	   l_ground_torque_x	   l_ground_torque_y	   l_ground_torque_z	
          1.54400000	         84.42367354	        577.00345184	        -23.80271203	          0.85290787	          0.00000000	          0.11880647	          0.00000000	          0.00000000	          0.00000000	          0.00000000	          0.00000000	          0.00000000	          0.00000000	          2.93925436	          0.00000000	          0.00000000	          0.00000000	          0.00000000	
          1.54800000	         90.08966650	        589.04534497	        -25.56957427	          0.85295574	          0.00000000	          0.11855619	          0.00000000	          0.00000000	          0.00000000	          0.00000000	          0.00000000	          0.00000000	          0.00000000	          3.06560661	          0.00000000	          0.00000000	          0.00000000	          0.00000000	
          1.55200000	         95.78148443	        601.19138017	        -26.68208309	          0.85304010	          0.00000000	          0.11828015	          0.00000000	          0.00000000	          0.00000000	          0.00000000	          0.00000000	          0.00000000	          0.00000000	          3.15468135	          0.00000000	          0.00000000	          0.00000000	          0.00000000	
          1.55600000	        101.38660633	        613.35745899	        -27.05403829	          0.85318505	          0.00000000	          0.11797438	          0.00000000	          0.00000000	          0.00000000	          0.00000000	          0.00000000	          0.00000000	          0.00000000	          3.20649689	          0.00000000	          0.00000000	          0.00000000	          0.00000000	
          1.56000000	        106.85713690	        625.42405239	        -26.74686580	          0.85339414	          0.00000000	          0.11764253	          0.00000000	          0.00000000	          0.00000000	          0.00000000	          0.00000000	          0.00000000	          0.00000000	          3.22590384	          0.00000000	          0.00000000	          0.00000000	          0.00000000	
          1.56400000	        112.21074187	        637.23508014	        -25.94518991	          0.85365468	          0.00000000	          0.11729803	          0.00000000	          0.00000000	          0.00000000	          0.00000000	          0.00000000	          0.00000000	          0.00000000	          3.22215629	          0.00000000	          0.00000000	          0.00000000	          0.00000000	
          1.56800000	        117.51247552	        648.61665804	        -24.91179344	          0.85394115	          0.00000000	          0.11695531	          0.00000000	          0.00000000	          0.00000000	          0.00000000	          0.00000000	          0.00000000	          0.00000000	          3.20772826	          0.00000000	          0.00000000	          0.00000000	          0.00000000	
          1.57200000	        122.84926931	        659.39983561	        -23.93340972	          0.85422590	          0.00000000	          0.11662410	          0.00000000	          0.00000000	          0.00000000	          0.00000000	          0.00000000	          0.00000000	          0.00000000	          3.19611398	          0.00000000	          0.00000000	          0.00000000	          0.00000000	
          1.57600000	        128.30791167	        669.42786510	        -23.26843598	          0.85449442	          0.00000000	          0.11631395	          0.00000000	          0.00000000	          0.00000000	          0.00000000	          0.00000000	          0.00000000	          0.00000000	          3.19903111	          0.00000000	          0.00000000	          0.00000000	          0.00000000	
          1.58000000	        133.95759681	        678.54759578	        -23.10510297	          0.85473543	          0.00000000	          0.11603359	          0.00000000	          0.00000000	          0.00000000	          0.00000000	          0.00000000	          0.00000000	          0.00000000	          3.22401669	          0.00000000	          0.00000000	          0.00000000	          0.00000000	
          1.58400000	        139.83125824	        686.60393638	        -23.53207686	          0.85494490	          0.00000000	          0.11578721	          0.00000000	          0.00000000	          0.00000000	          0.00000000	          0.00000000	          0.00000000	          0.00000000	          3.27337370	          0.00000000	          0.00000000	          0.00000000	          0.00000000	
          1.58800000	        145.90621048	        693.45290222	        -24.52049462	          0.85512940	          0.00000000	          0.11557382	          0.00000000	          0.00000000	          0.00000000	          0.00000000	          0.00000000	          0.00000000	          0.00000000	          3.34474666	          0.00000000	          0.00000000	          0.00000000	          0.00000000	
          1.59200000	        152.09581810	        698.98157226	        -25.92218044	          0.85528744	          0.00000000	          0.11538568	          0.00000000	          0.00000000	          0.00000000	          0.00000000	          0.00000000	          0.00000000	          0.00000000	          3.43270947	          0.00000000	          0.00000000	          0.00000000	          0.00000000	
          1.59600000	        158.26959736	        703.11484144	        -27.49230268	          0.85542456	          0.00000000	          0.11520924	          0.00000000	          0.00000000	          0.00000000	          0.00000000	          0.00000000	          0.00000000	          0.00000000	          3.53022829	          0.00000000	          0.00000000	          0.00000000	          0.00000000	
          1.60000000	        164.30569139	        705.79628186	        -28.93311523	          0.85555692	          0.00000000	          0.11502778	          0.00000000	          0.00000000	          0.00000000	          0.00000000	          0.00000000	          0.00000000	          0.00000000	          3.62906936	          0.00000000	          0.00000000	          0.00000000	          0.00000000	
          1.60400000	        170.16340450	        706.94800305	        -29.94353105	          0.85570379	          0.00000000	          0.11482910	          0.00000000	          0.00000000	          0.00000000	          0.00000000	          0.00000000	          0.00000000	          0.00000000	          3.71908568	          0.00000000	          0.00000000	          0.00000000	          0.00000000	
          1.60800000	        175.94131989	        706.44622167	        -30.27083034	          0.85587449	          0.00000000	          0.11461126	          0.00000000	          0.00000000	          0.00000000	          0.00000000	          0.00000000	          0.00000000	          0.00000000	          3.78738014	          0.00000000	          0.00000000	          0.00000000	          0.00000000	
          1.61200000	        181.85234929	        704.13486076	        -29.78312839	          0.85603190	          0.00000000	          0.11436967	          0.00000000	          0.00000000	          0.00000000	          0.00000000	          0.00000000	          0.00000000	          0.00000000	          3.81901321	          0.00000000	          0.00000000	          0.00000000	          0.00000000	
          1.61600000	        188.09228533	        699.85205128	        -28.53610113	          0.85608629	          0.00000000	          0.11411040	          0.00000000	          0.00000000	          0.00000000	          0.00000000	          0.00000000	          0.00000000	          0.00000000	          3.80051613	          0.00000000	          0.00000000	          0.00000000	          0.00000000	
          1.62000000	        194.69602216	        693.45340591	        -26.74350541	          0.85601119	          0.00000000	          0.11385684	          0.00000000	          0.00000000	          0.00000000	          0.00000000	          0.00000000	          0.00000000	          0.00000000	          3.72546439	          0.00000000	          0.00000000	          0.00000000	          0.00000000	
          1.62400000	        201.50619781	        684.83509177	        -24.66862964	          0.85583315	          0.00000000	          0.11361976	          0.00000000	          0.00000000	          0.00000000	          0.00000000	          0.00000000	          0.00000000	          0.00000000	          3.59892422	          0.00000000	          0.00000000	          0.00000000	          0.00000000	
          1.62800000	        208.24463261	        673.92091192	        -22.55733198	          0.85556863	          0.00000000	          0.11339469	          0.00000000	          0.00000000	          0.00000000	          0.00000000	          0.00000000	          0.00000000	          0.00000000	          3.43730797	          0.00000000	          0.00000000	          0.00000000	          0.00000000	
